<svg width="327" height="265" viewBox="0 0 327 265" fill="none" xmlns="http://www.w3.org/2000/svg">
<path d="M28.2633 36.8646L5.68893 142.476C5.23506 144.599 5.24759 146.796 5.72567 148.914L28.1591 248.303C29.7029 255.142 35.7792 260 42.791 260H291.17C298.553 260 304.838 254.628 305.987 247.334L321.642 147.971C321.879 146.465 321.886 144.931 321.66 143.423L305.899 37.7865C304.803 30.4384 298.493 25 291.064 25H42.9319C35.856 25 29.7424 29.9449 28.2633 36.8646Z" fill="#515572" stroke="#515572" stroke-width="10"/>
<path d="M28.2633 16.8646L5.68893 122.476C5.23506 124.599 5.24759 126.796 5.72567 128.914L28.1591 228.303C29.7029 235.142 35.7792 240 42.791 240H291.17C298.553 240 304.838 234.628 305.987 227.334L321.642 127.971C321.879 126.465 321.886 124.931 321.66 123.423L305.899 17.7865C304.803 10.4384 298.493 5 291.064 5H42.9319C35.856 5 29.7424 9.94494 28.2633 16.8646Z" fill="#8A92B2" stroke="#515572" stroke-width="10"/>
<path d="M207.54 204.313L163.517 140.351L157.248 131.246L106.163 57.0248H128.137L169.45 117.049L175.719 126.154L229.515 204.313H207.54ZM238.599 198.065L183.151 117.51L176.882 108.4L137.218 50.7755L133.93 46.0001H85.1914L97.078 63.2727L149.816 139.899L156.085 149L198.459 210.568L201.747 215.338H250.486L238.599 198.065Z" fill="#62688F"/>
<path d="M157.247 131.246L163.516 140.351L156.084 149L99.0614 215.338H85L149.815 139.899L157.247 131.246Z" fill="#62688F"/>
<path d="M244.617 46.0003L183.15 117.51L175.718 126.154L169.449 117.049L176.881 108.4L218.518 59.9365L230.556 46.0003H244.617Z" fill="#62688F"/>
<path d="M207.54 189.313L163.517 125.351L157.248 116.246L106.163 42.0248H128.137L169.45 102.049L175.719 111.154L229.515 189.313H207.54ZM238.599 183.065L183.151 102.51L176.882 93.3995L137.218 35.7755L133.93 31.0001H85.1914L97.078 48.2727L149.816 124.899L156.085 134L198.459 195.568L201.747 200.338H250.486L238.599 183.065Z" fill="white"/>
<path d="M157.247 116.246L163.516 125.351L156.084 134L99.0614 200.338H85L149.815 124.899L157.247 116.246Z" fill="white"/>
<path d="M244.617 31.0003L183.15 102.51L175.718 111.154L169.449 102.049L176.881 93.3997L218.518 44.9365L230.556 31.0003H244.617Z" fill="white"/>
</svg>
