<svg width="327" height="265" viewBox="0 0 327 265" fill="none" xmlns="http://www.w3.org/2000/svg">
<path d="M28.2633 36.8646L5.68893 142.476C5.23506 144.599 5.24759 146.796 5.72567 148.914L28.1591 248.303C29.7029 255.142 35.7792 260 42.791 260H291.17C298.553 260 304.838 254.628 305.987 247.334L321.642 147.971C321.879 146.465 321.886 144.931 321.66 143.423L305.899 37.7865C304.803 30.4384 298.493 25 291.064 25H42.9319C35.856 25 29.7424 29.9449 28.2633 36.8646Z" fill="#515572" stroke="#515572" stroke-width="10"/>
<path d="M28.2633 16.8646L5.68893 122.476C5.23506 124.599 5.24759 126.796 5.72567 128.914L28.1591 228.303C29.7029 235.142 35.7792 240 42.791 240H291.17C298.553 240 304.838 234.628 305.987 227.334L321.642 127.971C321.879 126.465 321.886 124.931 321.66 123.423L305.899 17.7865C304.803 10.4384 298.493 5 291.064 5H42.9319C35.856 5 29.7424 9.94494 28.2633 16.8646Z" fill="#8A92B2" stroke="#515572" stroke-width="10"/>
<path d="M258.626 54.3921C257.945 52.3832 257.133 51.8545 255.863 51.3523C253.087 50.3214 248.385 51.881 248.385 51.881C248.385 51.881 81.9102 111.83 72.3996 118.465C70.3518 119.892 69.6657 120.738 69.3253 121.716C67.6813 126.421 72.8034 128.509 72.8034 128.509L115.712 142.518C115.712 142.518 117.311 142.756 117.881 142.386C127.642 136.201 216.09 80.2696 221.191 78.3929C221.996 78.155 222.592 78.4193 222.434 78.9744C220.391 86.1641 143.571 154.545 143.571 154.545C143.571 154.545 143.278 154.915 143.093 155.338L142.993 155.285L138.989 197.921C138.989 197.921 137.311 210.979 150.35 197.921C159.549 188.696 168.45 180.978 172.905 177.251C187.659 187.454 203.537 198.741 210.39 204.635C213.831 207.596 216.71 208.071 219.08 207.992C225.585 207.754 227.4 200.591 227.4 200.591C227.4 200.591 257.737 78.2872 258.75 61.8989C258.851 60.2865 258.988 59.2821 258.998 58.1719C259.017 56.6388 258.874 55.1057 258.626 54.3921Z" fill="#62688F"/>
<path d="M258.626 41.3921C257.945 39.3832 257.133 38.8545 255.863 38.3523C253.087 37.3214 248.385 38.881 248.385 38.881C248.385 38.881 81.9102 98.8302 72.3996 105.465C70.3518 106.892 69.6657 107.738 69.3253 108.716C67.6813 113.421 72.8034 115.509 72.8034 115.509L115.712 129.518C115.712 129.518 117.311 129.756 117.881 129.386C127.642 123.201 216.09 67.2696 221.191 65.3929C221.996 65.155 222.592 65.4193 222.434 65.9744C220.391 73.1641 143.571 141.545 143.571 141.545C143.571 141.545 143.278 141.915 143.093 142.338L142.993 142.285L138.989 184.921C138.989 184.921 137.311 197.979 150.35 184.921C159.549 175.696 168.45 167.978 172.905 164.251C187.659 174.454 203.537 185.741 210.39 191.635C213.831 194.596 216.71 195.071 219.08 194.992C225.585 194.754 227.4 187.591 227.4 187.591C227.4 187.591 257.737 65.2872 258.75 48.8989C258.851 47.2865 258.988 46.2821 258.998 45.1719C259.017 43.6388 258.874 42.1057 258.626 41.3921Z" fill="white"/>
</svg>
